<svg width="21" height="14" viewBox="0 0 21 14" fill="none" xmlns="http://www.w3.org/2000/svg">
<rect x="5.10205" y="3.93286" width="10.6294" height="1.27552" fill="currentColor"/>
<rect x="5.1084" y="3.95032" width="10.6251" height="5.72121" fill="currentColor"/>
<rect x="5.65576" y="6.49353" width="9.53089" height="4.6607" fill="currentColor"/>
<rect x="5.28857" y="11.0577" width="2.56413" height="0.80129" transform="rotate(180 5.28857 11.0577)" fill="currentColor"/>
<rect width="2.56413" height="0.80129" transform="matrix(1 8.74226e-08 8.74229e-08 -1 15.5449 11.0577)" fill="currentColor"/>
<rect width="2.56413" height="0.80129" transform="matrix(1 8.74226e-08 8.74229e-08 -1 16.667 9.93591)" fill="currentColor"/>
<rect x="4.1665" y="9.93591" width="2.56413" height="0.80129" transform="rotate(180 4.1665 9.93591)" fill="currentColor"/>
<rect x="3.52539" y="10.2565" width="2.88464" height="0.801291" transform="rotate(90 3.52539 10.2565)" fill="currentColor"/>
<rect width="2.88464" height="0.801291" transform="matrix(-1.39071e-07 1 1 1.39071e-07 17.3081 10.2565)" fill="currentColor"/>
<rect width="2.88464" height="0.801291" transform="matrix(-1.39071e-07 1 1 1.39071e-07 18.4297 9.13464)" fill="currentColor"/>
<rect x="2.40381" y="9.13464" width="2.88464" height="0.801291" transform="rotate(90 2.40381 9.13464)" fill="currentColor"/>
<rect x="4.22314" y="5.44873" width="12.3279" height="2.79249" fill="currentColor"/>
<rect x="7.54102" y="1.51855" width="0.62841" height="3.08968" fill="currentColor"/>
<rect x="7.01514" width="1.7007" height="1.7007" fill="currentColor"/>
<rect x="12.6729" y="1.51855" width="0.62841" height="3.77045" fill="currentColor"/>
<rect x="12.1172" width="1.7007" height="1.7007" fill="currentColor"/>
<rect x="2.12598" y="3.82654" width="1.91329" height="1.27552" fill="currentColor"/>
<rect x="1.59424" y="5.3147" width="1.91329" height="1.27552" fill="currentColor"/>
<rect x="0.531738" y="2.76367" width="1.91329" height="1.27552" fill="currentColor"/>
<rect y="4.25171" width="1.91329" height="1.27552" fill="currentColor"/>
<rect width="1.91329" height="1.27552" transform="matrix(-1 0 0 1 18.7075 3.72021)" fill="currentColor"/>
<rect width="1.91329" height="1.27552" transform="matrix(-1 0 0 1 19.2393 5.20837)" fill="currentColor"/>
<rect width="1.91329" height="1.27552" transform="matrix(-1 0 0 1 20.3022 2.65735)" fill="currentColor"/>
<rect width="1.91329" height="1.27552" transform="matrix(-1 0 0 1 20.8335 4.14551)" fill="currentColor"/>
</svg>
